<svg xmlns="http://www.w3.org/2000/svg" viewBox="0 0 64 64">
  <rect width="64" height="64" rx="14" fill="#f6f7f6"/>
  <path d="M14 45c6-12 17-20 35-24" fill="none" stroke="#15283a" stroke-width="5" stroke-linecap="round"/>
  <path d="M15 51c9-9 20-15 34-18" fill="none" stroke="#15283a" stroke-width="5" stroke-linecap="round"/>
  <path d="M21 47V24" fill="none" stroke="#15283a" stroke-width="4" stroke-linecap="round"/>
  <path d="M21 29c-6-2-8-6-9-11 6 1 9 4 9 11Z" fill="#15283a"/>
  <path d="M21 37c-6-2-9-5-11-10 6 .5 10 4 11 10Z" fill="#15283a"/>
  <path d="M22 29c6-2 8-6 9-11-6 1-9 4-9 11Z" fill="#15283a"/>
  <path d="M22 37c6-2 9-5 11-10-6 .5-10 4-11 10Z" fill="#15283a"/>
  <path d="M37 17 48 8l-3 14 12-8-10 12" fill="none" stroke="#15283a" stroke-width="3" stroke-linecap="round" stroke-linejoin="round"/>
  <path d="M49 6l2 5 5 1-4 4 1 5-5-3-5 3 1-5-4-4 5-1Z" fill="#15283a"/>
</svg>
